{"title":"Nightcrawler 2014 720p HDCAM FIRST ENG x264 Pimp4003","uid":11482648,"size":1523886585,"categoryP":"video","categoryS":"movies","magnet":"?xt=urn:btih:a4c1b4eb3599f7b69bd546ea8f8ecc7936b7a251&amp;dn=Nightcrawler+2014+720p+HDCAM+FIRST+ENG+x264+Pimp4003&amp;tr=udp%3A%2F%2Ftracker.openbittorrent.com%3A80&amp;tr=udp%3A%2F%2Fopen.demonii.com%3A1337&amp;tr=udp%3A%2F%2Ftracker.coppersurfer.tk%3A6969&amp;tr=udp%3A%2F%2Fexodus.desync.com%3A6969","seeders":16,"leechers":2,"uploader":"shawnmurthy","files":-1,"time":1416191800,"description":"FOR SCREENSHOTS AND FASTER DOWNLOAD SPEEDS PLEASE VISIT MY HOME SITE....SOURCE IS PIMP4003....THE SOURCE IS PIMP4003.....NOT BAD FOR THE FIRST CAM...VIDEO IS PRETTY GOOD EVEN THE DARK SCENES NOT BAD FOR A CAM....DID SOME ADJUSTMENTS HERE AND THERE...AUDIO NOT BAD...DID A BIT OF WORK....ENJOY........ENJOY\n\nNightcrawler 2014 720p HDCAM FIRST ENG x264 Pimp4003\n &lt;a href=&quot;\nhttp://www.imdb.com/title/tt2872718/&quot; rel=&quot;nofollow&quot; target=&quot;_NEW&quot;&gt;\nhttp://www.imdb.com/title/tt2872718/&lt;/a&gt;\n\nWhen Lou Bloom, a driven man desperate for work, muscles into the world of L.A. crime journalism, he blurs the line between observer and participant to become the star of his own story. Aiding him in his effort is Nina, a TV-news veteran.\n\nDirector: Dan Gilroy\n\nWriter: Dan Gilroy\n\nStars: Jake Gyllenhaal, Rene Russo, Bill Paxton |See full cast and crew Â»\n\nENJOY\n\nFormat : MPEG-4 Visual\n\nFormat profile : Simple@L3\n\nFormat settings, BVOP : No\n\nFormat settings, QPel : No\n\nFormat settings, GMC : No warppoints\n\nFormat settings, Matrix : Default (H.263)\n\nCodec ID : 20\n\nDuration : 2h 43mn\n\nBit rate : 2 383 Kbps\n\nWidth : 1 280 pixels\n\nHeight : 536 pixels\n\nDisplay aspect ratio : 2.40:1\n\nFrame rate mode : Variable\n\nFrame rate : 59.940 fps\n\nMinimum frame rate : 59.916 fps\n\nMaximum frame rate : 60.157 fps\n\nColor space : YUV\n\nChroma subsampling : 4:2:0\n\nBit depth : 8 bits\n\nScan type : Progressive\n\nCompression mode : Lossy\n\nBits/(Pixel*Frame) : 0.058\n\nStream size : 2.72 GiB (95%)\n\nWriting library : ZJMedia MPEG Encoder\n\nAudio\n\nID : 2\n\nFormat : AAC\n\nFormat/Info : Advanced Audio Codec\n\nFormat profile : LC\n\nCodec ID : 40\n\nDuration : 2h 43mn\n\nBit rate mode : Variable\n\nBit rate : 128 Kbps\n\nChannel(s) : 2 channels\n\nChannel positions : Front: L R\n\nSampling rate : 48.0 KHz\n\nCompression mode : Lossy\n\nStream size : 150 MiB (5%)","torrent":{"xt":"urn:btih:a4c1b4eb3599f7b69bd546ea8f8ecc7936b7a251","amp;dn":"Nightcrawler+2014+720p+HDCAM+FIRST+ENG+x264+Pimp4003","amp;tr":["udp%3A%2F%2Ftracker.openbittorrent.com%3A80","udp%3A%2F%2Fopen.demonii.com%3A1337","udp%3A%2F%2Ftracker.coppersurfer.tk%3A6969","udp%3A%2F%2Fexodus.desync.com%3A6969"],"infoHash":"a4c1b4eb3599f7b69bd546ea8f8ecc7936b7a251","infoHashBuffer":{"type":"Buffer","data":[164,193,180,235,53,153,247,182,155,213,70,234,143,142,204,121,54,183,162,81]},"announce":[],"urlList":[]}}